<svg width="21" height="24" viewBox="0 0 21 24" fill="none" xmlns="http://www.w3.org/2000/svg">
<path d="M8.29038 20.4313C8.87361 20.3079 12.4275 20.3079 13.0107 20.4313C13.5093 20.5464 14.0485 20.8155 14.0485 21.403C14.0195 21.9623 13.6914 22.4582 13.238 22.7731C12.6501 23.2313 11.9602 23.5216 11.239 23.6261C10.8401 23.6778 10.4482 23.679 10.0633 23.6261C9.34089 23.5216 8.65098 23.2313 8.06427 22.7719C7.60975 22.4582 7.28161 21.9623 7.25262 21.403C7.25262 20.8155 7.79179 20.5464 8.29038 20.4313ZM10.7194 0.332031C13.1463 0.332031 15.6253 1.48355 17.0979 3.39414C18.0533 4.62439 18.4916 5.85346 18.4916 7.76405V8.26108C18.4916 9.72634 18.8789 10.59 19.7311 11.5852C20.3769 12.3184 20.5833 13.2596 20.5833 14.2807C20.5833 15.3006 20.2482 16.2689 19.5769 17.055C18.698 17.9973 17.4585 18.5989 16.1934 18.7035C14.3603 18.8598 12.5259 18.9914 10.6672 18.9914C8.8074 18.9914 6.97422 18.9127 5.14105 18.7035C3.87487 18.5989 2.63536 17.9973 1.75761 17.055C1.08626 16.2689 0.75 15.3006 0.75 14.2807C0.75 13.2596 0.957551 12.3184 1.60224 11.5852C2.48114 10.59 2.84291 9.72634 2.84291 8.26108V7.76405C2.84291 5.80176 3.33222 4.51864 4.33983 3.26254C5.83791 1.43068 8.23924 0.332031 10.6151 0.332031H10.7194Z" fill="#F8F9FA"/>
</svg>
