<svg width="18" height="25" viewBox="0 0 18 25" fill="none" xmlns="http://www.w3.org/2000/svg">
<path d="M8.76044 6.65C8.78237 6.60502 8.8165 6.56711 8.85893 6.54058C8.90137 6.51406 8.9504 6.5 9.00044 6.5C9.05048 6.5 9.09952 6.51406 9.14195 6.54058C9.18439 6.56711 9.21851 6.60502 9.24044 6.65L10.1914 8.5775C10.2105 8.61649 10.2387 8.65025 10.2738 8.67587C10.3088 8.70148 10.3495 8.71817 10.3924 8.7245L12.5224 9.0335C12.7399 9.065 12.8284 9.3335 12.6694 9.488L11.1304 10.9895C11.0994 11.0198 11.0762 11.0572 11.0629 11.0985C11.0495 11.1398 11.0465 11.1838 11.0539 11.2265L11.4169 13.3475C11.4251 13.3965 11.4194 13.4468 11.4006 13.4927C11.3817 13.5386 11.3505 13.5784 11.3103 13.6075C11.2701 13.6367 11.2225 13.654 11.173 13.6576C11.1235 13.6613 11.0739 13.651 11.0299 13.628L9.12494 12.626C9.08675 12.606 9.04429 12.5956 9.00119 12.5956C8.95809 12.5956 8.91563 12.606 8.87744 12.626L6.97244 13.628C6.92848 13.6506 6.87912 13.6605 6.82985 13.6567C6.78057 13.6529 6.73333 13.6355 6.69337 13.6064C6.65341 13.5773 6.6223 13.5377 6.60351 13.492C6.58472 13.4463 6.57898 13.3963 6.58694 13.3475L6.94994 11.2265C6.9576 11.1839 6.95477 11.14 6.94171 11.0987C6.92864 11.0575 6.90573 11.02 6.87494 10.9895L5.32994 9.488C5.29455 9.45325 5.26954 9.40934 5.25771 9.36117C5.24588 9.31301 5.24769 9.2625 5.26296 9.21531C5.27822 9.16812 5.30632 9.12612 5.34412 9.09401C5.38192 9.06189 5.42791 9.04094 5.47694 9.0335L7.60694 8.7245C7.64987 8.71817 7.69061 8.70148 7.72563 8.67587C7.76065 8.65025 7.78891 8.61649 7.80794 8.5775L8.76044 6.65Z" fill="#ADB5BD"/>
<path d="M0 3.5C0 2.70435 0.31607 1.94129 0.87868 1.37868C1.44129 0.816071 2.20435 0.5 3 0.5L15 0.5C15.7956 0.5 16.5587 0.816071 17.1213 1.37868C17.6839 1.94129 18 2.70435 18 3.5V23.75C17.9999 23.8857 17.9631 24.0188 17.8933 24.1351C17.8236 24.2515 17.7236 24.3468 17.604 24.4108C17.4844 24.4748 17.3497 24.5052 17.2142 24.4988C17.0787 24.4923 16.9474 24.4492 16.8345 24.374L9 20.1515L1.1655 24.374C1.05256 24.4492 0.921345 24.4923 0.785837 24.4988C0.650329 24.5052 0.5156 24.4748 0.395999 24.4108C0.276399 24.3468 0.176406 24.2515 0.106671 24.1351C0.036936 24.0188 7.00806e-05 23.8857 0 23.75V3.5ZM3 2C2.60218 2 2.22064 2.15804 1.93934 2.43934C1.65804 2.72064 1.5 3.10218 1.5 3.5V22.349L8.5845 18.626C8.70759 18.5441 8.85215 18.5004 9 18.5004C9.14785 18.5004 9.29241 18.5441 9.4155 18.626L16.5 22.349V3.5C16.5 3.10218 16.342 2.72064 16.0607 2.43934C15.7794 2.15804 15.3978 2 15 2H3Z" fill="#ADB5BD"/>
</svg>
