<svg width="18" height="25" viewBox="0 0 18 25" fill="none" xmlns="http://www.w3.org/2000/svg">
<path d="M0 3.5C0 2.70435 0.31607 1.94129 0.87868 1.37868C1.44129 0.816071 2.20435 0.5 3 0.5L15 0.5C15.7956 0.5 16.5587 0.816071 17.1213 1.37868C17.6839 1.94129 18 2.70435 18 3.5V23.75C17.9999 23.8857 17.9631 24.0188 17.8933 24.1351C17.8236 24.2515 17.7236 24.3468 17.604 24.4108C17.4844 24.4748 17.3497 24.5052 17.2142 24.4988C17.0787 24.4923 16.9474 24.4492 16.8345 24.374L9 20.1515L1.1655 24.374C1.05256 24.4492 0.921345 24.4923 0.785837 24.4988C0.650329 24.5052 0.5156 24.4748 0.395999 24.4108C0.276399 24.3468 0.176406 24.2515 0.106671 24.1351C0.036936 24.0188 7.00806e-05 23.8857 0 23.75V3.5ZM3 2C2.60218 2 2.22064 2.15804 1.93934 2.43934C1.65804 2.72064 1.5 3.10218 1.5 3.5V22.349L8.5845 18.626C8.70759 18.5441 8.85215 18.5004 9 18.5004C9.14785 18.5004 9.29241 18.5441 9.4155 18.626L16.5 22.349V3.5C16.5 3.10218 16.342 2.72064 16.0607 2.43934C15.7794 2.15804 15.3978 2 15 2H3Z" fill="#ADB5BD"/>
</svg>
