<svg width="117" height="132" viewBox="0 0 117 132" fill="none" xmlns="http://www.w3.org/2000/svg">
<rect x="0.28125" y="19.293" width="106.522" height="106.522" rx="53.2612" fill="url(#paint0_linear_1_26286)"/>
<path d="M24.0603 59.8418L24.07 59.8217C25.5775 56.6841 28.7775 54.7163 32.2572 54.7869C33.8529 54.7884 35.6261 55.4908 37.4102 56.567C39.2067 57.6507 41.0672 59.146 42.8478 60.8042C46.4083 64.1198 49.698 68.1327 51.576 70.9421L51.5782 70.9453C52.8259 72.8434 54.2866 74.5932 55.9305 76.161C56.3198 76.5305 56.8702 76.6747 57.3888 76.5436L57.392 76.5428C57.9515 76.4052 58.4003 75.9876 58.5772 75.4408C59.2966 73.0753 59.6328 70.6111 59.5733 68.1392L59.5731 68.1272H59.5732V33.9602C54.2551 30.8227 50.9905 25.0944 51.013 18.9047C51.013 18.9044 51.013 18.9041 51.013 18.9037L51.513 18.9056C51.513 9.44995 59.1778 1.78516 68.6334 1.78516C78.089 1.78516 85.7548 9.44995 85.7548 18.9056L24.0603 59.8418ZM24.0603 59.8418L24.0525 59.8627C22.9886 62.7005 23.8149 65.901 26.1198 67.8678C28.1095 69.8662 31.1947 74.5128 34.3199 80.0033C37.4429 85.4896 40.5718 91.7577 42.6404 96.9305L42.6404 96.9305C45.5196 104.126 51.8163 111.148 56.5521 115.749C58.4905 117.657 59.5788 120.265 59.5732 122.986V122.987V123.769C59.5732 127.592 62.6714 130.69 66.4938 130.69H100.735C104.557 130.69 107.655 127.592 107.655 123.769V117.195V117.186L107.655 117.177C107.64 116.775 107.792 116.385 108.073 116.099C112.116 112.397 114.146 107.477 115.168 103.449C116.191 99.4133 116.215 96.2266 116.215 95.9483V62.0732C116.297 57.2317 112.646 53.1391 107.827 52.6712L107.819 52.6705L107.811 52.67C106.281 52.5694 104.755 52.8596 103.375 53.5064L103.375 51.0097C103.375 51.0092 103.375 51.0088 103.375 51.0083C103.393 47.7437 101.645 44.725 98.8033 43.1166C96.1808 41.6316 93.0061 41.5633 90.3386 42.8963C89.8437 40.1488 88.0897 37.7717 85.5754 36.496L85.5754 36.496C83.0925 35.2367 80.1823 35.2084 77.6936 36.3843V33.9602C83.0127 30.8227 86.2773 25.0944 86.2548 18.9046L24.0603 59.8418ZM102.875 61.7075V65.9876C102.875 67.1691 101.917 68.1272 100.735 68.1272C99.5532 68.1272 98.5951 67.1691 98.5951 65.9876V51.0068C98.5951 48.6429 96.6789 46.7267 94.315 46.7267C91.9511 46.7267 90.0349 48.6429 90.0349 51.0068V63.8471C90.0349 65.0295 89.0768 65.9876 87.8943 65.9876C86.7129 65.9876 85.7548 65.0295 85.7548 63.8471V44.5871C85.7548 42.2232 83.8376 40.307 81.4737 40.307C79.1108 40.307 77.1936 42.2232 77.1936 44.5871V63.8471C77.1936 65.0295 76.2355 65.9876 75.054 65.9876C73.8716 65.9876 72.9135 65.0295 72.9135 63.8471V18.9056C72.9135 16.5417 70.9973 14.6255 68.6334 14.6255C66.2695 14.6255 64.3533 16.5417 64.3533 18.9056V68.1272C64.416 71.119 63.9957 74.1011 63.1101 76.9597L102.875 61.7075ZM102.875 61.7075C102.872 60.5721 103.325 59.4827 104.131 58.6833L102.875 61.7075ZM64.8533 68.122C64.9165 71.1659 64.4887 74.1996 63.5877 77.1077L63.5846 77.1178L63.5845 77.1178C62.8331 79.3729 60.9813 81.0891 58.6743 81.6648L64.8533 68.122ZM64.8533 68.122V18.9056C64.8533 16.8178 66.5456 15.1255 68.6334 15.1255C70.7212 15.1255 72.4135 16.8178 72.4135 18.9056V63.8471C72.4135 65.3057 73.5955 66.4876 75.054 66.4876C76.5118 66.4876 77.6936 65.3055 77.6936 63.8471V44.5871C77.6936 42.4995 79.3869 40.807 81.4737 40.807C83.5616 40.807 85.2548 42.4995 85.2548 44.5871V63.8471C85.2548 65.3055 86.4366 66.4876 87.8943 66.4876C89.3529 66.4876 90.5349 65.3057 90.5349 63.8471V51.0068C90.5349 48.919 92.2272 47.2267 94.315 47.2267C96.4027 47.2267 98.0951 48.919 98.0951 51.0068V65.9876C98.0951 67.4452 99.2771 68.6272 100.735 68.6272C102.193 68.6272 103.375 67.4454 103.375 65.9876V61.7075V61.7062C103.373 60.7047 103.772 59.7437 104.483 59.0384C105.26 58.2683 106.329 57.8672 107.421 57.9361C109.471 58.2116 110.986 59.987 110.936 62.0568L110.935 62.0568V62.069V95.9483C110.935 95.9483 110.935 95.9906 110.933 96.0732C110.93 96.1545 110.926 96.2729 110.919 96.4247C110.903 96.7284 110.874 97.1656 110.82 97.7068C110.71 98.7898 110.497 100.286 110.084 101.96C109.256 105.319 107.64 109.342 104.498 112.213L104.498 112.213L104.492 112.218C103.123 113.509 102.355 115.315 102.375 117.198V123.769C102.375 124.676 101.641 125.41 100.735 125.41H66.4938C65.5875 125.41 64.8533 124.676 64.8533 123.769V122.987V122.987H64.3533M64.8533 68.122L47.0811 95.1529C49.7731 101.885 56.2575 108.8 59.8832 112.32C62.7447 115.131 64.3562 118.975 64.3533 122.987M64.3533 122.987V123.769C64.3533 124.952 65.3114 125.91 66.4938 125.91H100.735C101.917 125.91 102.875 124.952 102.875 123.769V117.195L64.3533 122.987ZM52.3058 80.0043L52.3047 80.0032C50.3683 78.1602 48.6473 76.1035 47.1757 73.8719C44.9281 70.5007 41.848 67.0243 38.971 64.3934C37.5323 63.0779 36.1547 61.9832 34.9668 61.2209C34.3728 60.8397 33.8347 60.5472 33.3668 60.3514C32.893 60.153 32.5217 60.067 32.2521 60.067H32.2447L32.2372 60.0668C30.881 60.0265 29.6112 60.7283 28.9231 61.8952L52.3058 80.0043ZM52.3058 80.0043C54.004 81.6106 56.4059 82.2374 58.6728 81.6652L52.3058 80.0043ZM56.2931 18.9084V18.9056C56.2931 12.09 61.8178 6.56526 68.6334 6.56526C75.449 6.56526 80.9737 12.09 80.9737 18.9056L80.9737 18.9084C80.9913 22.0371 79.8081 25.0371 77.6936 27.3045V18.9056C77.6936 13.9016 73.6373 9.84536 68.6334 9.84536C63.6295 9.84536 59.5732 13.9016 59.5732 18.9056V27.3042C57.4593 25.0368 56.2755 22.0369 56.2931 18.9084Z" fill="#5C5C5C" stroke="#5C5C5C"/>
<path d="M105.015 93.804C106.197 93.804 107.155 92.8459 107.155 91.6635V78.8232C107.155 77.6417 106.197 76.6836 105.015 76.6836C103.833 76.6836 102.875 77.6417 102.875 78.8232V91.6635C102.875 92.8459 103.833 93.804 105.015 93.804Z" fill="#5C5C5C"/>
<path d="M102.874 106.651C103.441 106.651 103.986 106.426 104.387 106.024C106.015 104.518 107.005 102.445 107.154 100.231C107.152 99.0747 106.222 98.1352 105.066 98.1215C103.897 98.099 102.924 99.014 102.874 100.182C102.714 101.268 102.179 102.264 101.361 102.998C100.749 103.61 100.566 104.53 100.897 105.33C101.228 106.13 102.008 106.651 102.874 106.651Z" fill="#5C5C5C"/>
<path d="M70.7734 121.636H72.9129C74.0954 121.636 75.0535 120.677 75.0535 119.495C75.0535 118.314 74.0954 117.355 72.9129 117.355H70.7734C69.5909 117.355 68.6328 118.314 68.6328 119.495C68.6328 120.677 69.5909 121.636 70.7734 121.636Z" fill="#5C5C5C"/>
<path d="M81.4677 121.636H96.4485C97.631 121.636 98.5891 120.677 98.5891 119.495C98.5891 118.314 97.631 117.355 96.4485 117.355H81.4677C80.2862 117.355 79.3281 118.314 79.3281 119.495C79.3281 120.677 80.2862 121.636 81.4677 121.636Z" fill="#5C5C5C"/>
<path d="M51.5131 37.1799C52.3674 37.1799 53.1394 36.6735 53.4783 35.8897C53.8173 35.106 53.6586 34.1959 53.0737 33.5738C45.6587 25.7366 45.2561 13.5997 52.1362 5.28833C52.6446 4.70152 52.7955 3.88547 52.531 3.15563C52.2655 2.42579 51.6258 1.89677 50.8587 1.77334C50.0917 1.6499 49.3187 1.95164 48.8377 2.56196C40.5851 12.5348 41.0632 27.0964 49.9535 36.5059C50.3581 36.936 50.9224 37.1799 51.5131 37.1799Z" fill="#5C5C5C"/>
<path d="M88.6089 31.5107C89.1134 31.7693 89.7012 31.8173 90.241 31.6429C90.7818 31.4686 91.2304 31.0875 91.4891 30.582C96.1679 21.4712 94.9649 10.4482 88.4306 2.56196C87.9506 1.95164 87.1766 1.6499 86.4096 1.77334C85.6435 1.89677 85.0038 2.42579 84.7383 3.15563C84.4728 3.88547 84.6237 4.70152 85.1331 5.28833C90.578 11.8579 91.5802 21.0411 87.6821 28.6305C87.1423 29.6817 87.5577 30.9709 88.6089 31.5107Z" fill="#5C5C5C"/>
<defs>
<linearGradient id="paint0_linear_1_26286" x1="105.419" y1="21.8691" x2="-14.1726" y2="57.1176" gradientUnits="userSpaceOnUse">
<stop stop-color="#E4EBFF"/>
<stop offset="1" stop-color="#5379EB"/>
</linearGradient>
</defs>
</svg>
