<svg width="25" height="24" viewBox="0 0 25 24" fill="none" xmlns="http://www.w3.org/2000/svg">
<g clip-path="url(#clip0_4480_220153)">
<path d="M9.66406 22C10.2163 22 10.6641 21.5523 10.6641 21C10.6641 20.4477 10.2163 20 9.66406 20C9.11178 20 8.66406 20.4477 8.66406 21C8.66406 21.5523 9.11178 22 9.66406 22Z" stroke="white" stroke-width="2" stroke-linecap="round" stroke-linejoin="round"/>
<path d="M20.6641 22C21.2163 22 21.6641 21.5523 21.6641 21C21.6641 20.4477 21.2163 20 20.6641 20C20.1118 20 19.6641 20.4477 19.6641 21C19.6641 21.5523 20.1118 22 20.6641 22Z" stroke="white" stroke-width="2" stroke-linecap="round" stroke-linejoin="round"/>
<path d="M1.66406 1H5.66406L8.34406 14.39C8.43551 14.8504 8.68597 15.264 9.05161 15.5583C9.41725 15.8526 9.87476 16.009 10.3441 16H20.0641C20.5334 16.009 20.9909 15.8526 21.3565 15.5583C21.7222 15.264 21.9726 14.8504 22.0641 14.39L23.6641 6H6.66406" stroke="white" stroke-width="2" stroke-linecap="round" stroke-linejoin="round"/>
</g>
<defs>
<clipPath id="clip0_4480_220153">
<rect width="24" height="24" fill="white" transform="translate(0.664062)"/>
</clipPath>
</defs>
</svg>
