<svg width="34" height="27" viewBox="0 0 34 27" fill="none" xmlns="http://www.w3.org/2000/svg">
<g clip-path="url(#clip0_1_35680)">
<path d="M9.36372 22.9062V21.6487C9.36372 21.1665 9.07553 20.8522 8.58156 20.8522C8.33463 20.8522 8.06706 20.936 7.88181 21.2085C7.73781 20.978 7.53203 20.8522 7.22331 20.8522C7.01744 20.8522 6.81175 20.915 6.64703 21.1456V20.8941H6.21484V22.9062H6.64703V21.7953C6.64703 21.4391 6.83228 21.2714 7.12047 21.2714C7.40847 21.2714 7.55266 21.46 7.55266 21.7953V22.9062H7.98484V21.7953C7.98484 21.4391 8.19053 21.2714 8.45809 21.2714C8.74628 21.2714 8.89028 21.46 8.89028 21.7953V22.9062H9.36372V22.9062ZM15.7641 20.8941H15.0645V20.2863H14.6323V20.8941H14.2413V21.2923H14.6322V22.2146C14.6322 22.6757 14.8174 22.9481 15.3114 22.9481C15.4967 22.9481 15.7023 22.8853 15.8465 22.8015L15.723 22.4242C15.5995 22.508 15.4555 22.529 15.3526 22.529C15.1468 22.529 15.0645 22.4032 15.0645 22.1936V21.2923H15.7641V20.8941V20.8941ZM19.4275 20.8521C19.1806 20.8521 19.0159 20.978 18.913 21.1456V20.8941H18.4808V22.9062H18.913V21.7744C18.913 21.4391 19.057 21.2505 19.3246 21.2505C19.4069 21.2505 19.5098 21.2715 19.5921 21.2924L19.7156 20.8732C19.6333 20.8522 19.5098 20.8522 19.4275 20.8522V20.8521ZM13.8914 21.0618C13.6855 20.915 13.3974 20.8522 13.0887 20.8522C12.5948 20.8522 12.2656 21.1037 12.2656 21.5019C12.2656 21.8373 12.5125 22.0259 12.9447 22.0888L13.1505 22.1098C13.3769 22.1517 13.5003 22.2146 13.5003 22.3194C13.5003 22.4661 13.3357 22.5709 13.0475 22.5709C12.7594 22.5709 12.533 22.4661 12.3889 22.3613L12.1832 22.6966C12.4096 22.8643 12.7183 22.9481 13.0269 22.9481C13.6032 22.9481 13.9325 22.6757 13.9325 22.2984C13.9325 21.9421 13.665 21.7534 13.2533 21.6906L13.0475 21.6696C12.8623 21.6486 12.7183 21.6068 12.7183 21.481C12.7183 21.3343 12.8623 21.2505 13.0887 21.2505C13.3357 21.2505 13.5827 21.3552 13.7061 21.4181L13.8914 21.0618V21.0618ZM25.3753 20.8522C25.1283 20.8522 24.9636 20.978 24.8607 21.1456V20.8941H24.4285V22.9062H24.8607V21.7744C24.8607 21.4391 25.0048 21.2505 25.2723 21.2505C25.3547 21.2505 25.4576 21.2715 25.5399 21.2924L25.6634 20.8732C25.5811 20.8522 25.4576 20.8522 25.3753 20.8522V20.8522ZM19.8597 21.9002C19.8597 22.508 20.2713 22.9481 20.9093 22.9481C21.1974 22.9481 21.4032 22.8853 21.609 22.7177L21.4032 22.3613C21.2386 22.4871 21.0739 22.5499 20.8887 22.5499C20.5388 22.5499 20.2919 22.2984 20.2919 21.9002C20.2919 21.5229 20.5388 21.2714 20.8887 21.2505C21.0739 21.2505 21.2386 21.3133 21.4032 21.4391L21.609 21.0828C21.4032 20.915 21.1974 20.8522 20.9093 20.8522C20.2713 20.8522 19.8597 21.2924 19.8597 21.9002ZM23.8523 21.9002V20.8941H23.4201V21.1456C23.276 20.957 23.0703 20.8522 22.8027 20.8522C22.247 20.8522 21.8148 21.2924 21.8148 21.9002C21.8148 22.508 22.247 22.9481 22.8027 22.9481C23.0908 22.9481 23.2967 22.8434 23.4201 22.6547V22.9062H23.8523V21.9002V21.9002ZM22.2676 21.9002C22.2676 21.5439 22.494 21.2505 22.8644 21.2505C23.2143 21.2505 23.4613 21.5229 23.4613 21.9002C23.4613 22.2565 23.2143 22.5499 22.8644 22.5499C22.494 22.5289 22.2676 22.2565 22.2676 21.9002V21.9002ZM17.1019 20.8522C16.5257 20.8522 16.114 21.2714 16.114 21.9002C16.114 22.529 16.5256 22.9481 17.1225 22.9481C17.4106 22.9481 17.6988 22.8643 17.9252 22.6757L17.7193 22.3613C17.5547 22.4871 17.3489 22.5709 17.1431 22.5709C16.8755 22.5709 16.608 22.4452 16.5462 22.0887H18.0075V21.9212C18.0281 21.2714 17.6576 20.8522 17.1018 20.8522H17.1019ZM17.1019 21.2294C17.3694 21.2294 17.5548 21.3972 17.5958 21.7116H16.5668C16.608 21.4391 16.7932 21.2294 17.1019 21.2294ZM27.8243 21.9002V20.0977H27.3921V21.1456C27.248 20.957 27.0423 20.8522 26.7747 20.8522C26.219 20.8522 25.7868 21.2924 25.7868 21.9002C25.7868 22.508 26.219 22.9481 26.7747 22.9481C27.0629 22.9481 27.2687 22.8434 27.3921 22.6547V22.9062H27.8243V21.9002V21.9002ZM26.2397 21.9002C26.2397 21.5439 26.466 21.2505 26.8365 21.2505C27.1863 21.2505 27.4333 21.5229 27.4333 21.9002C27.4333 22.2565 27.1863 22.5499 26.8365 22.5499C26.466 22.5289 26.2397 22.2565 26.2397 21.9002V21.9002ZM11.7921 21.9002V20.8941H11.3599V21.1456C11.2158 20.957 11.0101 20.8522 10.7425 20.8522C10.1868 20.8522 9.75466 21.2924 9.75466 21.9002C9.75466 22.508 10.1868 22.9481 10.7425 22.9481C11.0307 22.9481 11.2365 22.8434 11.3599 22.6547V22.9062H11.7921V21.9002V21.9002ZM10.1868 21.9002C10.1868 21.5439 10.4133 21.2505 10.7837 21.2505C11.1335 21.2505 11.3806 21.5229 11.3806 21.9002C11.3806 22.2565 11.1335 22.5499 10.7837 22.5499C10.4133 22.5289 10.1868 22.2565 10.1868 21.9002V21.9002Z" fill="black"/>
<path d="M13.7471 5.61328H20.2299V17.4764H13.7471V5.61328Z" fill="#FF5F00"/>
<path d="M14.1583 11.5455C14.1583 9.13516 15.2697 6.99723 16.9778 5.61385C15.7225 4.60781 14.1378 4 12.4091 4C8.31341 4 5 7.37446 5 11.5455C5 15.7164 8.31341 19.091 12.409 19.091C14.1377 19.091 15.7224 18.4832 16.9778 17.477C15.2697 16.1146 14.1583 13.9558 14.1583 11.5455V11.5455Z" fill="#EB001B"/>
<path d="M28.9758 11.5455C28.9758 15.7164 25.6624 19.091 21.5669 19.091C19.8381 19.091 18.2535 18.4832 16.998 17.477C18.7268 16.0937 19.8176 13.9558 19.8176 11.5455C19.8176 9.13516 18.7062 6.99723 16.998 5.61385C18.2534 4.60781 19.8381 4 21.5669 4C25.6624 4 28.9759 7.39546 28.9759 11.5455H28.9758Z" fill="#F79E1B"/>
</g>
<rect x="0.5" y="0.5" width="33" height="26" rx="4.5" stroke="#CED4DA"/>
<defs>
<clipPath id="clip0_1_35680">
<rect x="5" y="4" width="24" height="19" fill="white"/>
</clipPath>
</defs>
</svg>
