<svg width="26" height="25" viewBox="0 0 26 25" fill="none" xmlns="http://www.w3.org/2000/svg">
<path d="M17.4684 24.5784V15.2011H20.609L21.0788 11.5557H17.4684V9.22958C17.4684 8.17419 17.7619 7.454 19.275 7.454H21.2054V4.19362C20.2709 4.09447 19.3316 4.04638 18.3919 4.04958C15.6094 4.04958 13.7046 5.74843 13.7046 8.86881V11.5557H10.5573V15.2011H13.7046V24.5784H2.11959C1.76257 24.5784 1.42017 24.4366 1.16772 24.1841C0.915264 23.9317 0.773438 23.5893 0.773438 23.2323V1.69381C0.773438 1.33679 0.915264 0.994388 1.16772 0.741935C1.42017 0.489483 1.76257 0.347656 2.11959 0.347656H23.6581C24.0151 0.347656 24.3575 0.489483 24.6099 0.741935C24.8624 0.994388 25.0042 1.33679 25.0042 1.69381V23.2323C25.0042 23.5893 24.8624 23.9317 24.6099 24.1841C24.3575 24.4366 24.0151 24.5784 23.6581 24.5784H17.4684Z" fill="white"/>
</svg>
