<svg width="28" height="27" viewBox="0 0 28 27" fill="none" xmlns="http://www.w3.org/2000/svg">
<path d="M14.0787 0.00390625C17.7362 0.00390625 18.1926 0.0173677 19.6276 0.0846754C21.0612 0.151983 22.0372 0.376791 22.896 0.710637C23.7845 1.05256 24.533 1.51564 25.2814 2.26275C25.9659 2.93569 26.4956 3.7497 26.8335 4.64814C27.166 5.50564 27.3922 6.48294 27.4595 7.9166C27.5228 9.3516 27.5403 9.80794 27.5403 13.4654C27.5403 17.1229 27.5268 17.5793 27.4595 19.0143C27.3922 20.4479 27.166 21.4239 26.8335 22.2828C26.4966 23.1817 25.9668 23.9959 25.2814 24.6681C24.6083 25.3524 23.7943 25.882 22.896 26.2203C22.0385 26.5528 21.0612 26.7789 19.6276 26.8462C18.1926 26.9095 17.7362 26.927 14.0787 26.927C10.4212 26.927 9.96488 26.9135 8.52988 26.8462C7.09623 26.7789 6.12026 26.5528 5.26142 26.2203C4.36263 25.883 3.54847 25.3533 2.87603 24.6681C2.19139 23.9953 1.66171 23.1813 1.32392 22.2828C0.990072 21.4253 0.765264 20.4479 0.697957 19.0143C0.634687 17.5793 0.617188 17.1229 0.617188 13.4654C0.617188 9.80794 0.630649 9.3516 0.697957 7.9166C0.765264 6.4816 0.990072 5.50698 1.32392 4.64814C1.66077 3.74915 2.19058 2.93492 2.87603 2.26275C3.54867 1.57787 4.36276 1.04816 5.26142 0.710637C6.12026 0.376791 7.09488 0.151983 8.52988 0.0846754C9.96488 0.0214062 10.4212 0.00390625 14.0787 0.00390625ZM14.0787 6.73468C12.2936 6.73468 10.5816 7.44381 9.31935 8.70607C8.05709 9.96834 7.34796 11.6803 7.34796 13.4654C7.34796 15.2506 8.05709 16.9626 9.31935 18.2248C10.5816 19.4871 12.2936 20.1962 14.0787 20.1962C15.8638 20.1962 17.5758 19.4871 18.8381 18.2248C20.1004 16.9626 20.8095 15.2506 20.8095 13.4654C20.8095 11.6803 20.1004 9.96834 18.8381 8.70607C17.5758 7.44381 15.8638 6.73468 14.0787 6.73468ZM22.8287 6.39814C22.8287 5.95186 22.6514 5.52386 22.3359 5.20829C22.0203 4.89273 21.5923 4.71544 21.146 4.71544C20.6998 4.71544 20.2718 4.89273 19.9562 5.20829C19.6406 5.52386 19.4633 5.95186 19.4633 6.39814C19.4633 6.84441 19.6406 7.27241 19.9562 7.58798C20.2718 7.90355 20.6998 8.08083 21.146 8.08083C21.5923 8.08083 22.0203 7.90355 22.3359 7.58798C22.6514 7.27241 22.8287 6.84441 22.8287 6.39814ZM14.0787 9.42698C15.1498 9.42698 16.177 9.85246 16.9344 10.6098C17.6917 11.3672 18.1172 12.3944 18.1172 13.4654C18.1172 14.5365 17.6917 15.5637 16.9344 16.3211C16.177 17.0784 15.1498 17.5039 14.0787 17.5039C13.0077 17.5039 11.9805 17.0784 11.2231 16.3211C10.4657 15.5637 10.0403 14.5365 10.0403 13.4654C10.0403 12.3944 10.4657 11.3672 11.2231 10.6098C11.9805 9.85246 13.0077 9.42698 14.0787 9.42698Z" fill="white"/>
</svg>
