<svg width="28" height="23" viewBox="0 0 28 23" fill="none" xmlns="http://www.w3.org/2000/svg">
<path d="M26.7688 4.06191C27.384 6.46076 27.384 11.4684 27.384 11.4684C27.384 11.4684 27.384 16.4761 26.7688 18.875C26.4269 20.201 25.4267 21.2442 24.16 21.5969C21.8594 22.2377 13.9225 22.2377 13.9225 22.2377C13.9225 22.2377 5.98959 22.2377 3.68498 21.5969C2.41286 21.2388 1.41401 20.1969 1.07613 18.875C0.460938 16.4761 0.460938 11.4684 0.460938 11.4684C0.460938 11.4684 0.460938 6.46076 1.07613 4.06191C1.41805 2.73595 2.41825 1.69268 3.68498 1.33999C5.98959 0.699219 13.9225 0.699219 13.9225 0.699219C13.9225 0.699219 21.8594 0.699219 24.16 1.33999C25.4321 1.69806 26.4309 2.73999 26.7688 4.06191ZM11.2302 16.18L19.3071 11.4684L11.2302 6.75691V16.18Z" fill="white"/>
</svg>
