<svg width="25" height="25" viewBox="0 0 25 25" fill="none" xmlns="http://www.w3.org/2000/svg">
<path d="M20.6433 20.6526H17.0558V15.0297C17.0558 13.6889 17.0288 11.9631 15.1846 11.9631C13.3148 11.9631 13.0294 13.4224 13.0294 14.9314V20.6526H9.44058V9.09044H12.8867V10.6654H12.9338C13.4158 9.75814 14.5869 8.79833 16.3369 8.79833C19.9715 8.79833 20.6446 11.1918 20.6446 14.3054V20.6526H20.6433ZM5.38865 7.50871C5.11479 7.50907 4.84354 7.45537 4.59047 7.35068C4.3374 7.246 4.10748 7.0924 3.91388 6.89868C3.72029 6.70497 3.56684 6.47495 3.46232 6.22181C3.3578 5.96867 3.30428 5.69739 3.30481 5.42352C3.30507 5.01138 3.42755 4.60856 3.65675 4.26603C3.88594 3.92349 4.21157 3.65661 4.59244 3.49913C4.97332 3.34165 5.39234 3.30066 5.79651 3.38133C6.20069 3.46199 6.57186 3.6607 6.86311 3.95232C7.15435 4.24394 7.35258 4.61537 7.43272 5.01965C7.51287 5.42393 7.47133 5.84289 7.31336 6.22356C7.15539 6.60424 6.88809 6.92952 6.54526 7.15827C6.20242 7.38702 5.79945 7.50898 5.38731 7.50871H5.38865ZM7.18711 20.6526H3.58885V9.09044H7.18846V20.6526H7.18711ZM22.4404 0.00390625H1.78904C0.798269 0.00390625 0 0.784675 0 1.74987V22.4887C0 23.4539 0.799615 24.2347 1.78769 24.2347H22.435C23.4231 24.2347 24.2308 23.4539 24.2308 22.4887V1.74987C24.2308 0.784675 23.4231 0.00390625 22.435 0.00390625H22.439H22.4404Z" fill="white"/>
</svg>
