<svg width="32" height="33" viewBox="0 0 32 33" fill="none" xmlns="http://www.w3.org/2000/svg">
<path d="M16 0.00390625C7.15675 0.00390625 0 7.15997 0 16.0039C0 24.8472 7.15606 32.0039 16 32.0039C24.8433 32.0039 32 24.8478 32 16.0039C32 7.16066 24.8439 0.00390625 16 0.00390625ZM9.80912 3.30097C9.32494 4.61966 8.9185 5.96016 8.59044 7.31941C7.63163 7.02809 6.68844 6.67878 5.76275 6.27178C6.93488 5.04034 8.30075 4.03766 9.80912 3.30097ZM4.52112 7.76891C5.71931 8.32378 6.94556 8.78766 8.19625 9.15972C7.83337 11.0968 7.62587 13.0683 7.57662 15.0664H1.90638C2.07906 12.4138 2.983 9.90328 4.52112 7.76891ZM4.52112 24.2389C2.983 22.1045 2.07906 19.594 1.90638 16.9414H7.57662C7.62587 18.9395 7.83337 20.911 8.19625 22.8481C6.94556 23.2202 5.71937 23.684 4.52112 24.2389ZM5.76275 25.7361C6.68844 25.329 7.63156 24.9797 8.59044 24.6885C8.91856 26.0477 9.32494 27.3882 9.80912 28.7069C8.3015 27.9706 6.9355 26.9681 5.76275 25.7361ZM15.0625 30.0975C14.0779 30.0335 13.1127 29.8691 12.1791 29.6085C11.4375 27.851 10.8456 26.049 10.4042 24.2108C11.9241 23.871 13.4791 23.6723 15.0625 23.6161V30.0975ZM15.0625 21.74C13.347 21.7967 11.6622 22.0092 10.0156 22.3759C9.68844 20.5928 9.49994 18.779 9.45225 16.9414H15.0625V21.74ZM15.0625 15.0664H9.45225C9.49994 13.2288 9.68844 11.415 10.0156 9.63191C11.6622 9.99866 13.347 10.2112 15.0625 10.2678V15.0664ZM15.0625 8.39172C13.4791 8.33553 11.9241 8.13684 10.4042 7.79703C10.8456 5.95884 11.4375 4.15684 12.1791 2.39934C13.1127 2.13872 14.0779 1.97434 15.0625 1.91028V8.39172ZM27.4789 7.76891C29.017 9.90328 29.9209 12.4138 30.0936 15.0664H24.4234C24.3741 13.0683 24.1666 11.0968 23.8037 9.15972C25.0544 8.78766 26.2806 8.32378 27.4789 7.76891ZM26.2372 6.27172C25.3116 6.67878 24.3684 7.02809 23.4096 7.31934C23.0814 5.96009 22.6751 4.61959 22.1909 3.30091C23.6985 4.03722 25.0645 5.03972 26.2372 6.27172ZM16.9375 1.91028C17.9221 1.97434 18.8873 2.13872 19.8209 2.39934C20.5625 4.15684 21.1544 5.95884 21.5958 7.79703C20.0759 8.13684 18.5209 8.33553 16.9375 8.39172V1.91028ZM16.9375 10.2678C18.653 10.2112 20.3378 9.99866 21.9844 9.63191C22.3116 11.415 22.5001 13.2288 22.5478 15.0664H16.9375V10.2678ZM19.8209 29.6084C18.8873 29.8691 17.9221 30.0335 16.9375 30.0975V23.6161C18.5209 23.6723 20.0759 23.871 21.5958 24.2108C21.1543 26.049 20.5625 27.851 19.8209 29.6084ZM16.9375 21.74V16.9414H22.5478C22.5001 18.779 22.3116 20.5928 21.9844 22.3759C20.3378 22.0092 18.653 21.7967 16.9375 21.74ZM22.1909 28.7068C22.6751 27.3882 23.0815 26.0477 23.4096 24.6884C24.3684 24.9797 25.3116 25.329 26.2372 25.736C25.0651 26.9675 23.6992 27.9702 22.1909 28.7068ZM27.4789 24.2389C26.2807 23.684 25.0544 23.2202 23.8037 22.8481C24.1666 20.911 24.3741 18.9395 24.4234 16.9414H30.0936C29.9209 19.594 29.017 22.1045 27.4789 24.2389Z" fill="white"/>
</svg>
