<svg width="20" height="21" viewBox="0 0 20 21" fill="none" xmlns="http://www.w3.org/2000/svg">
<path d="M16.8586 0.548072L1.13372 8.22167C0.471235 8.54493 0.055191 9.20372 0.047864 9.9408C0.0405958 10.6779 0.443534 11.3448 1.09946 11.6811L6.27982 14.3374L10.9423 9.05861C11.1569 8.8157 11.5278 8.79268 11.7707 9.00725C12.0136 9.2218 12.0366 9.5927 11.8221 9.83563L7.15955 15.1144L10.4353 19.927C10.8501 20.5364 11.5616 20.8539 12.2922 20.7556C13.0242 20.6571 13.6255 20.1618 13.8641 19.4657L19.5367 2.9134C19.795 2.15979 19.5845 1.36403 18.9874 0.836651C18.3903 0.309268 17.5746 0.198634 16.8586 0.548072Z" fill="white"/>
</svg>
