<svg width="15" height="20" viewBox="0 0 24 27" fill="#5832DA" xmlns="http://www.w3.org/2000/svg">
<path d="M2.04234 5.21225C4.35473 3.98889 7.23877 2.54846 9.31007 1.48506C10.924 0.656468 13.1175 0.589011 14.7224 1.43495L21.8652 5.1999C23.1782 5.89198 24 7.2542 24 8.73844V18.106C24 19.5727 23.1973 20.9217 21.9083 21.6215L13.9083 25.9641C12.7181 26.6102 11.2819 26.6102 10.0917 25.9641L2.0917 21.6215C0.802692 20.9217 0 19.5727 0 18.106V8.65201C0 7.21362 0.770915 5.88489 2.04234 5.21225Z" fill="#5832DA"/>
<rect width="4.39964" height="1.13484" rx="0.567422" transform="matrix(0.827398 0.561616 -0.588898 0.808207 8.67188 13.6094)" fill="white"/>
<rect width="7.63435" height="1.1525" rx="0.576251" transform="matrix(-0.556523 0.830832 -0.848383 -0.529382 16 10.6094)" fill="white"/>
</svg>
